<?xml version="1.0" encoding="UTF-8"?>
<svg version="1.1" viewBox="0 0 2048 1000" width="300" height="147" xmlns="http://www.w3.org/2000/svg">
<path transform="translate(471,39)" d="m0 0h32l18 4 13 5 13 7 10 7 11 9 11 11 13 18 10 19 8 24 3 18v28l-3 17-6 18-8 16-10 15-9 10-13 13-14 10-15 9-14 6-17 4-8 1h-14l-14-2-12-4-1 4v45l3 28 7 43 3 12 8 3 27 9 23 10 17 9 22 14 14 11 14 12 20 20 9 11 11 15 10 16 12 23 10 26 6 24 3 19 1 12v28l-2 21-5 25-6 21-10 25-12 23-9 14-12 16-11 13-18 18-14 11-19 13-21 12-23 10-25 8-22 5-22 3-12 1h-23l-29-3-23-5-30-10-22-10-17-10-12-8-14-11-14-12-13-13-7-8-14-18-13-21-10-19-9-23-7-25-4-20-1-11h-12l-15-2-16-4-18-7-16-8-12-8-13-11-9-9-11-15-8-17-4-16-1-7v-28l3-19 7-21 9-17 8-11 11-12 10-8-1-5-7-15-6-18-5-25-2-24 1-22 4-25 5-18 8-18 7-13 10-14 12-13 13-10 13-8 15-7 16-5 22-4 12-1h33l20 2 2-12 6-21 9-20 9-15 8-10 9-10 7-7 16-11 16-8 13-4 15-30 10-14 8-9 12-9 14-8 16-7 20-6 20-4z" fill="#FCFCFC"/>
<path transform="translate(471,39)" d="m0 0h32l18 4 13 5 13 7 10 7 11 9 11 11 13 18 10 19 8 24 3 18v28l-3 17-6 18-8 16-10 15-9 10-13 13-14 10-15 9-14 6-17 4-8 1h-14l-14-2-12-4-1 4v45l3 28 7 43 3 12 8 3 27 9 23 10 17 9 22 14 14 11 14 12 20 20 9 11 11 15 10 16 12 23 10 26 6 24 3 19 1 12v28l-2 21-5 25-6 21-10 25-12 23-9 14-12 16-11 13-18 18-14 11-19 13-21 12-23 10-25 8-22 5-22 3-12 1h-23l-29-3-23-5-30-10-22-10-17-10-12-8-14-11-14-12-13-13-7-8-14-18-13-21-10-19-9-23-7-25-4-20-1-11h-12l-15-2-16-4-18-7-16-8-12-8-13-11-9-9-11-15-8-17-4-16-1-7v-28l3-19 7-21 9-17 8-11 11-12 10-8-1-5-7-15-6-18-5-25-2-24 1-22 4-25 5-18 8-18 7-13 10-14 12-13 13-10 13-8 15-7 16-5 22-4 12-1h33l20 2 2-12 6-21 9-20 9-15 8-10 9-10 7-7 16-11 16-8 13-4 15-30 10-14 8-9 12-9 14-8 16-7 20-6 20-4zm-10 68-16 4-12 6-11 9-7 10-5 14-2 6-5 4-15 8-18 12-17 12-15 14-7 7-7 10-8 16-6 18-4 20-2 22v34l1 18 1 7-7-10-9-13-10-11-11-9-12-8-13-5-16-3h-23l-13 3-16 8-10 7-12 11-11 14-8 16-5 13-4 17-2 20 1 21 4 19 5 15 10 21 10 14 12 14 7 7 6 8 2 7-7-1-17-4-10-1h-16l-11 3-11 6-8 7-8 11-6 12-3 14v23l3 14 6 11 11 11 12 7 11 4 16 3h25l13-4 10-8 4-4 3-1h20l-2 25v30l4 28 5 22 7 19 8 16 8 13 9 12 11 12 12 12 16 12 14 8 16 8 18 7 23 6 23 4 28 2 27-1 24-4 21-6 16-7 17-9 16-11 13-11 17-17 10-13 12-19 9-17 9-22 5-19 2-11v-34l-5-28-6-21-7-19-11-23-12-19-14-17-17-17-15-11-11-7-16-8-16-6-21-5-23-3-12-1-4-6-8-26-5-23-5-35-3-34-2-49 1-38 9-8 15-10 20-12h7l12 2h20l12-3 12-6 10-8 9-14 5-13 2-9 1-18-1-14-3-11-8-16-9-11-9-8-8-5-12-4-5-1z" fill="#19428E"/>
<path transform="translate(471,39)" d="m0 0h32l18 4 13 5 13 7 10 7 11 9 11 11 13 18 10 19 8 24 3 18v28l-3 17-6 18-8 16-10 15-9 10-13 13-14 10-15 9-14 6-17 4-8 1h-14l-14-2-12-4-1 4v45l3 28 7 43 3 12 8 3 27 9 23 10 17 9 22 14 14 11 14 12 20 20 9 11 11 15 10 16 12 23 10 26 6 24 3 19 1 12v28l-2 21-5 25-6 21-10 25-12 23-9 14-12 16-11 13-18 18-14 11-19 13-21 12-23 10-25 8-22 5-22 3-12 1h-23l-29-3-23-5-30-10-22-10-17-10-12-8-14-11-14-12-13-13-7-8-14-18-13-21-10-19-9-23-7-25-4-20-1-11h-12l-15-2-16-4-18-7-16-8-12-8-13-11-9-9-11-15-8-17-4-16-1-7v-28l3-19 7-21 9-17 8-11 11-12 10-8-1-5-7-15-6-18-5-25-2-24 1-22 4-25 5-18 8-18 7-13 10-14 12-13 13-10 13-8 15-7 16-5 22-4 12-1h33l20 2 2-12 6-21 9-20 9-15 8-10 9-10 7-7 16-11 16-8 13-4 15-30 10-14 8-9 12-9 14-8 16-7 20-6 20-4zm12 30-21 2-24 6-19 8-11 7-13 11-9 11-12 17-7 11-3 4v2l-4 2-6 5-18 10-13 9-10 9-12 14-10 16-7 17-5 17-4 27-1 11-4-1-15-6-16-5-16-2h-31l-18 3-15 5-19 10-12 11-9 11-9 13-9 19-7 21-4 15-3 24v23l4 20 5 14 11 21 10 15 1 4-21 11-10 8-7 7-9 12-8 13-6 16-2 15 1 16 3 17 6 15 6 12 9 12 9 9 10 7 16 8 14 4 14 2h23l19-1 3 28 5 26 6 20 8 20 6 10 5 9 10 14 9 11 12 13 13 13 11 8 16 11 16 9 23 11 16 6 21 6 22 4 26 2h19l20-2 21-4 23-7 22-9 19-10 20-13 16-13 3-2v-2l4-2 12-14 10-12 11-16 6-10 8-16 9-22 4-11 7-32 2-13 1-15v-23l-3-22-4-17-10-27-8-15-11-17-7-9h-2l-2-4-9-11-7-7-8-7-15-12-21-14-17-9-26-11-38-13-6-3-3-1-1-5-6-15-6-25-4-25-3-26-1-17v-31l1-21 3-10 8-7 7-3 4 1 13 4 10 2h19l18-5 11-6 10-8 10-9 10-11 9-14 9-19 5-17 1-6v-24l-3-14-7-18-8-15-8-10-9-10-13-10-12-7-11-4-19-3z" fill="#0E1B47"/>
<path transform="translate(469,144)" d="m0 0h11l9 3 8 7 5 9 1 4v12l-4 10-5 6-8 5-7 2h-10l-10-4-7-5-4-5h-2l-5 5-16 10-18 14-15 13-12 12-9 11-8 13-5 16-2 12-1 11v39l3 31 4 28 8 43 13 56 5 22 1 2 32-1 22 2 20 4 21 7 23 12 12 8 11 9 10 9 11 13 12 17 10 19 6 24 1 8-2-1-7-21-8-17-10-16-10-13-12-13-10-9-17-12-27-14-18-6-25-4h-30l-21 3-25 6-15 6-18 10-16 12-12 11-11 12-10 14-9 15-8 20-5 22-1 8v29l4 23 5 17 5 12 9 15 10 14 9 10 5 6 11 9 9 7 13 8 19 9 17 5 31 5h30l21-3 20-5 19-7 15-8 16-11 13-12 10-10 12-16 10-17 5-9 2 3-5 13-9 15-10 13-12 13-10 8-11 8-16 10-17 8-19 6-25 5-17 2h-13l-20-2-19-4-20-6-16-7-17-10-16-12-13-12-11-13-10-15-9-17-7-19-4-19-1-8v-27l3-19 6-21 9-21 9-15 10-13 12-13 13-11 9-7 2-4-8-45-8-35-9-29-9-21-8-15-11-16-11-13-8-8-13-9-11-4-5-1h-10l-11 4-5 4h-2l-2 4-5 8-4 10-2 10v28l4 18 6 16 8 15 14 19 14 17 9 10 15 20 9 14 4 9 1 8-2 10-6 8-9 6-13 5-17 3-16 1h-18l-7 9-8 6-6 2h-11l-12-6-6-7-4-11v-9l4-11 7-7 8-4 4-1h10l9 3 7 6 6 12 1 13h26l21-3 13-5 9-7 2-3 1-11-3-10-7-13-13-17-24-28-12-15-10-16-8-16-5-17-2-12v-27l3-16 8-16 7-9 8-5 7-2h18l13 4 11 6 15 13 7 8 9 12 9 15 11 21 10 28 7 26 7 34 4 23 1 9 1 2 26-12 30-10-3-14-11-44-9-42-7-43-3-28v-53l2-19 4-15 8-16 11-14 15-15 22-18 17-12 15-9 4-1-2-11 1-9 5-10 7-6z" fill="#2C57AA"/>
<path transform="translate(456,103)" d="m0 0h33l12 5 9 5 9 8v2h2l7 10 5 8 6 15 2 10-1 17-2 19-4 14-7 12-6 9-7 6h-3l-1 3-3 2h-4l-1 3-7 3-20 2h-10l-2-1h-7l-11 2h-6v2l-8 4-12 8-5 4-3 15v7l1 2 1 15v15l1 24v31l-1 18 2 14 4 29 4 16 3 10 5 2 11 8v2l5 2 2 1 15 2 20 4 22 7 5 1 8 4 7 4 10 6 8 7v2l4 2v2l4 2 1 3h2v2h2l2 5h2l10 13 11 15 9 14 6 11 6 10 4 13 4 11 7 21 2 7 2 5v8h2v27l-2 12-1 3-3 13-1 6-2 6-2 1-2 11h-2v4h-2l-3 10-4 6-3 7-6 10-1 4-5 5-3 4h-2l-2 5-4 5-17 17-4 5-10 8-8 7-11 7-12 7-21 8-21 7-27 6-9 1h-44l-18-2-8-3-6-3-9-2-4-4-9-2-11-6-10-4-3-3-9-4-9-6-11-7-13-11-5-4-7-8-5-5v-2h-2l-5-8v-2h-2l-3-6-6-9-4-9-7-18-7-27-5-39-1-16-4-19-1-1h-6l-7 4-10 1-4 2h-4v2l-5 4-4 1h-22l-14-2-6-2-14-5-10-7-6-8-6-9-4-9-3-11-2-5-1-12-1-6 2-13 5-9 2-6 2-1 4-7 5-8 6-8 7-4 11-4 13-2 1-2 5-1v-2l6-2 4-1 1-5 3 1v-4l-7-4-2 2-3-6-2 2-1-11-4-15-3-6-2-10-7-25-1-11v-16l2-19 2-1-1 27 2 19 4 17 8 20 8 15 12 16 12 13 9 11 1 7 2 1-9-1-17-4-10-1h-16l-11 3-11 6-7 6-8 11-6 12-3 14v23l3 14 6 11 10 10 12 7 11 4 16 3h25l13-4 10-8 4-4 3-1h17l3 1v13l-1 12v30l4 28 5 22 7 19 8 16 8 13 9 12 11 12v2l4 2 7 7 16 12 14 8 16 8 18 7 23 6 23 4 28 2 27-1 24-4 21-6 16-7 17-9 16-11 13-11 16-16 10-13 12-19 9-17 9-22 5-19 2-11v-34l-5-28-6-21-7-19-11-23-12-19-14-17-16-16-15-11-11-7-16-8-16-6-21-5-23-3-12-1-4-5-8-24-6-27-5-35-3-34-2-49 1-38 7-7 15-10 13-8 10-6h7l12 2h20l12-3 12-6 9-7 9-14 5-13 2-9 1-18-1-14-3-11-8-16-9-11-8-7-8-5-12-4-5-1h-22l-16 4-12 6-10 8-7 10-5 14-2 6-6 5-15 8-18 12-17 12-15 14-10 11-9 16-7 19-5 24-2 22v34l1 18 1 9-4-5-4-6-2-5-1-17v-26l2-18 4-10 2-9 1-9 3-6 3-8 8-16 7-12 4-6 3-5 3-1v-2l15-10 1-2h2l2-4h2v-2h2v-2h2l1-3 3-1 2-2 12-7 4-5 6-1v-2l6-2v-2l5-5 6-13 6-10 6-7 7-5h2v-2l9-5 12-3z" fill="#2B56A9"/>
<path transform="translate(915,519)" d="m0 0h14l22 2 17 4 19 8 15 9 13 11 8 9 8 14 4 11 1 11-3 9-7 8h-9l-6-4-4-6-1-5 3-6 10-8 1-5-8-13-7-8-13-10-16-9-16-6-14-3-8-1h-34l-16 3-18 6-19 10-13 10-13 12-12 16-10 17-8 19-5 17-3 18-1 13v16l3 24 4 17 9 22 9 15 10 13 12 12 13 10 16 9 14 6 17 5 14 2 14 1h10l20-2 16-4 20-8 14-8 13-9 14-11h4l1 7-7 8-8 7-15 10-15 8-19 7-19 4-17 2h-23l-22-3-20-6-20-9-15-10-13-11-10-10-10-13-9-15-7-15-6-18-4-19-2-17v-21l3-23 5-19 8-20 10-18 10-13 12-14 12-11 14-10 16-9 19-7 12-3z" fill="#03060C"/>
<path transform="translate(1140,636)" d="m0 0h29l16 3 14 7 10 9 7 11 4 10 1 4 1 53v88h33l2 2-1 7-37 1-8-1-2-28-13 11-10 7-16 8-16 4-9 1h-15l-16-3-10-4-9-6-9-9-8-16-2-8v-17l4-13 7-11 6-7 14-10 14-5 9-2 11-1h14l20 2 20 4 15 5-1-42-2-14-5-10-7-8-11-7-12-4-6-1h-28l-13 3-11 6-6 5-1 5 3 5v9l-6 7-8 1-6-5-2-5v-7l5-10 7-8 10-7 11-5 11-3zm-4 95-15 3-14 7-8 7-7 10-4 13v16l4 13 9 10 7 6 10 5 8 2 10 1h10l14-2 18-7 15-10 13-11 4-4v-49l-20-6-20-3-11-1z" fill="#03060C"/>
<path transform="translate(1495,638)" d="m0 0h8l1 1v128l2 22 3 10 6 9 5 5 7 5 9 3 5 1h20l12-3 16-8 10-7 11-9 14-14 2-4 1-129h-21l-13-1-1-1v-7h47v182h34l2 3v6h-46l-1-1v-39l-8 7-15 15-15 10-14 7-13 3-8 1h-13l-12-2-13-5-10-8-7-10-5-12-2-9-1-9v-130h-31l-5-3v-6z" fill="#04070E"/>
<path transform="translate(1901,636)" d="m0 0h31l18 4 17 8 11 8 10 9 9 12 8 15 6 20 1 6v32l-4 17-7 17-9 13-9 10-9 8-13 8-15 6-15 3-9 1h-16l-14-2-18-6-11-6-13-10-10-11-7-11-6-12-5-16-2-11v-29l4-17 7-16 8-12 11-13 12-10 14-8 14-5zm3 9-14 3-12 5-10 6-10 9-8 8-8 13-6 13-4 17-1 9v13l3 20 6 15 7 12 11 13 10 8 16 9 13 4 5 1h28l16-4 16-8 14-11 8-9 8-13 6-17 2-10v-30l-3-16-7-17-8-12-6-7-14-11-15-8-14-4-8-1z" fill="#04060D"/>
<path transform="translate(1343,636)" d="m0 0h29l17 3 12 5 11 7 8 9 4 9-1 7-4 6-6 3-7-2-4-4-1-7 4-8-1-5-5-4-11-5-13-3-8-1h-21l-15 3-13 7-7 7-6 12-1 4v13l4 9 1 3 4 2 9 6 11 5 23 7 26 7 15 6 12 7 10 9 7 11 3 11v9l-3 14-6 10-6 7-12 9-13 5-16 3-11 1h-12l-21-3-13-4-12-6-10-8-6-8-4-11 1-7 4-5 4-2 7 1 6 4 1 2v6l-5 6 2 8 8 6 14 6 16 4 18 1 19-2 15-5 9-6 7-7 5-10 1-5v-14l-3-9-7-9-11-7-14-6-44-12-17-6-11-6-7-6-7-11-3-9v-17l5-12 9-11 9-7 14-7z" fill="#04070D"/>
<path transform="translate(1700,492)" d="m0 0h49v329h37l1 1v7l-1 1h-85l-1-1v-8l1-1 36 1v-320h-35l-3-2z" fill="#03050A"/>
<path transform="translate(469,144)" d="m0 0h11l9 3 8 7 5 9 1 4v12l-4 10-5 6-8 5-7 2h-10l-10-4-7-5-4-5v-7h-2l-1-12 3-10 6-8 6-4z" fill="#0E1A47"/>
<path transform="translate(148,564)" d="m0 0h10l8 3 10 9 2 6 1 12-3 13-9 8-8 3h-11l-12-6-6-7-1-5 1-4-1-2v-7l4-12 1-2h2l1-4 8-4z" fill="#0E1A47"/>
<path transform="translate(211,293)" d="m0 0h18l7 3 22 6 10 5 1 3 4 2 7 9-1 2-5-5-5-2-12-8-13-5-16-3h-23l-13 3-16 8-10 7-12 11-10 13-5 9-3-1v-2h2l1-4 4-10 2-4 7-10 4-3h2v-2l11-9 9-5 8-4 13-3z" fill="#2B56A9"/>
<path transform="translate(512,708)" d="m0 0 4 1-1 8-4 11-7 13-12 14-11 10-18 11-16 6-20 4-7 1h-16l-25-5-15-6-9-6v-3l6 2 16 7 14 4 14 2h11l20-3 15-4 14-6 12-8 10-9 10-11 9-17z" fill="#2B56A8"/>
<path transform="translate(1167,540)" d="m0 0h8l8 3 4 1 10-4h6l5 3 3 7 1 6 1 22-6 1-1-1-1-26-3-7h-7l-5 4-1 21-1 7-1 1h-5l-1-28-4-4-8-1-3 3-1 5v23l-1 2-5-1-1-28 3-6z" fill="#0A1325"/>
<path transform="translate(1249,539)" d="m0 0h8l7 3 4 5 2 12v21l-3 9-8 7-5 2h-10l-8-4 1-3 12 2 7-2 5-4 2-9h-2l-3 2-9 1-7-3-4-5-3-8v-12l4-8 6-5zm-1 5-6 5-3 8 1 10 4 7 4 3h7l6-4 2-3 1-6v-10l-3-7-3-3z" fill="#091125"/>
<path transform="translate(1398,523)" d="m0 0 5 2 2 32v9l-2 10-10 5h-12l-6-4-4-5-3-8v-7l3-8 5-6 6-3h11l7 2-2-15zm-15 21-6 5-3 7v11l3 5 6 5h7l5-3 3-4 1-3v-13l-3-7-5-3z" fill="#080F1E"/>
<path transform="translate(1128,525)" d="m0 0 4 2 8 19 8 23 4 7v2h-6l-8-16-5-20-3-5h-2l-5 12-3 11 2-1h14l1 3-1 1-18 1-3 9-4 6h-4l3-10 8-23 9-20z" fill="#070E1B"/>
<path transform="translate(1424,540)" d="m0 0h13l6 4 5 6 2 5v8l-3 9-4 5-9 5h-8l-8-5-4-6-2-12 2-9 6-8zm-2 4m5 0-7 6-3 7v8l3 8 5 4h8l6-4 4-5 1-3v-9l-3-8-5-4z" fill="#070D1A"/>
<path transform="translate(1289,540)" d="m0 0h12l6 4 4 5 3 6v8l-3 8-6 8-6 3-5 1-7-2-8-9-2-6v-12l4-8 6-5zm3 4-6 4-4 6-1 4v7l4 8 5 4h9l5-4 4-7v-11l-4-8-4-3z" fill="#070E1C"/>
<path transform="translate(1330,540)" d="m0 0h9l3 4-12 1-4 2v5l7 7 8 6 2 3-1 6-5 5-4 2h-7l-4-2-3-6 6 3h6l6-4-2-6-9-7-4-5h-3l1-5 4-6z" fill="#0A1326"/>
<path transform="translate(346,658)" d="m0 0h17l10 4 2 4-9-2-4-1h-12l-11 4-11 7-9 8-4-1 6-8 9-8 12-6z" fill="#2C57AA"/>
<path transform="translate(462,617)" d="m0 0h17l7 2 5 5-3 1-15-3h-7l-10 3-8 4-11 9-4 3h-2l1-4 7-8 10-7z" fill="#29519F"/>
<path transform="translate(1243,541)" d="m0 0 2 1-1 1 4 2-5 4-3 8 1 10 4 7 3 2h7l6-4h2l1 5-5 2-6 2-8-1-6-5-4-10v-12l4-8z" fill="#0C1832"/>
<path transform="translate(1269,559)" d="m0 0h1v21l-3 9-8 7-5 2h-10l-8-4 1-3 12 2 7-2 5-4 2-9h2l1-11h2z" fill="#091123"/>
<path transform="translate(1222,535)" d="m0 0 2 3 2 9 1 17v16l-4-1-1-2-1-11v-23z" fill="#0A1427"/>
<path transform="translate(469,144)" d="m0 0h11l9 3 8 7-1 2-7-6-10-3h-11l-8 4h-2l-2 4-4 6-4 11-1 9h-1l-1-12 3-10 6-8 6-4z" fill="#2B56A9"/>
<path transform="translate(1207,549)" d="m0 0 2 2 3 5 1 22-6 1-1-1v-27z" fill="#040810"/>
<path transform="translate(1289,540)" d="m0 0h12l6 4 4 5 2 4-1 3-3-4h-3l-4-6-2-1h-8l-6 3v-5z" fill="#060C18"/>
<path transform="translate(1399,527)" d="m0 0h2l1 7v30h-1l-2-10-2-4-1-5 3-3z" fill="#112151"/>
<path transform="translate(1269,559)" d="m0 0h1v21l-2 7-5 1-1-3 1-7h2l1-11h2z" fill="#1B366E"/>
<path transform="translate(135,570)" d="m0 0 1 3h-2l-3 10-1 4v7l1 6-3 1-2-7v-9l3-9z" fill="#2C57AA"/>
<path transform="translate(1222,535)" d="m0 0 2 3 2 9v10l-2 4-3-6v-12z" fill="#0E1C37"/>
<path transform="translate(1206,554)" d="m0 0 2 1v20l3 1 1-4 1 1v5l-6 1-1-1z" fill="#0B1534"/>
<path transform="translate(461,198)" d="m0 0h23l2 2-7 2h-10l-8-3z" fill="#1F4998"/>
<path transform="translate(166,613)" d="m0 0 2 1-5 3-4 1h-11l-7-3 4-1h19z" fill="#2953A5"/>
<path transform="translate(1266,559)" d="m0 0 3 1-1 20h-1l-1-8-1 6-2-4-1-4 2-3z" fill="#010203"/>
<path transform="translate(469,144)" d="m0 0h11l9 3 8 7-1 2-7-6-10-3-11-1z" fill="#2A55A7"/>
<path transform="translate(241,362)" d="m0 0 6 2 9 10 7 8h-3l-7-8-12-11z" fill="#13264A"/>
<path transform="translate(500,161)" d="m0 0 2 2 1 4v12l-3 8h-1v-6l1-1 1-9z" fill="#2B56A8"/>
<path transform="translate(1424,540)" d="m0 0 2 1 1 4-5 3-1-2-2 4-2-3 2-4z" fill="#13244C"/>
<path transform="translate(1221,548)" d="m0 0 3 1 2 4-1 8-3-3-1-3z" fill="#0E1A46"/>
<path transform="translate(538,183)" d="m0 0h1l-1 19-1 2h-2l2-20z" fill="#2C57AA"/>
<path transform="translate(1287,541)" d="m0 0m-2 1 2 1 1 2h-2l-2 4-4 2-1-2z" fill="#0A142C"/>
<path transform="translate(1309,551)" d="m0 0 3 3-2 9-2-1-1-10z" fill="#122454"/>
<path transform="translate(1220,525)" d="m0 0 5 1 1 4-2 2-5-4z" fill="#14274F"/>
<path transform="translate(1398,523)" d="m0 0 5 2v10l-2-1v-7h-3z" fill="#0A1326"/>
<path transform="translate(128,587)" d="m0 0h1l2 12-3 2-1-8z" fill="#1D4795"/>
<path transform="translate(1206,547)" d="m0 0h4l1 7-2 3-1-6-3 1z" fill="#122251"/>
</svg>
